<svg xmlns="http://www.w3.org/2000/svg" viewBox="0 0 1440 320" style="-webkit-filter: drop-shadow( 3px 3px 2px rgba(0, 0, 0, .7)); filter: drop-shadow( 3px 3px 2px rgba(0, 0, 0, .7));">
    <path fill="cornflowerblue" fill-opacity="1" d="M0,224L34.3,213.3C68.6,203,137,181,206,170.7C274.3,160,343,160,411,138.7C480,117,549,75,617,90.7C685.7,107,754,181,823,224C891.4,267,960,277,1029,234.7C1097.1,192,1166,96,1234,74.7C1302.9,53,1371,107,1406,133.3L1440,160L1440,320L1405.7,320C1371.4,320,1303,320,1234,320C1165.7,320,1097,320,1029,320C960,320,891,320,823,320C754.3,320,686,320,617,320C548.6,320,480,320,411,320C342.9,320,274,320,206,320C137.1,320,69,320,34,320L0,320Z" style="-webkit-filter: drop-shadow( 3px 3px 20px rgba(0, 0, 0, .7)); filter: drop-shadow(3px 3px 20px rgba(0, 0, 0, .7));"></path>
</svg>